<?xml version="1.0" encoding="UTF-8" standalone="no"?>
<!-- Creator: CorelDRAW X5 -->

<svg
   xmlns:dc="http://purl.org/dc/elements/1.1/"
   xmlns:cc="http://creativecommons.org/ns#"
   xmlns:rdf="http://www.w3.org/1999/02/22-rdf-syntax-ns#"
   xmlns:svg="http://www.w3.org/2000/svg"
   xmlns="http://www.w3.org/2000/svg"
   xmlns:sodipodi="http://sodipodi.sourceforge.net/DTD/sodipodi-0.dtd"
   xmlns:inkscape="http://www.inkscape.org/namespaces/inkscape"
   xml:space="preserve"
   width="340.38553"
   height="288.21863"
   style="fill-rule:evenodd"
   viewBox="0 0 3782.0615 3202.4292"
   id="svg2"
   version="1.1"
   inkscape:version="0.92.3 (2405546, 2018-03-11)"
   sodipodi:docname="tfpl-logo.svg"
   inkscape:export-filename="C:\Users\aday\Pictures\desktop.png"
   inkscape:export-xdpi="90"
   inkscape:export-ydpi="90"><metadata
   id="metadata90"><rdf:RDF><cc:Work
       rdf:about=""><dc:format>image/svg+xml</dc:format><dc:type
         rdf:resource="http://purl.org/dc/dcmitype/StillImage" /><dc:title></dc:title></cc:Work></rdf:RDF></metadata><sodipodi:namedview
   pagecolor="#000000"
   bordercolor="#666666"
   borderopacity="1"
   objecttolerance="10"
   gridtolerance="10"
   guidetolerance="10"
   inkscape:pageopacity="1"
   inkscape:pageshadow="2"
   inkscape:window-width="1920"
   inkscape:window-height="1017"
   id="namedview88"
   showgrid="false"
   inkscape:zoom="0.32525253"
   inkscape:cx="-55.651395"
   inkscape:cy="119.68745"
   inkscape:window-x="-8"
   inkscape:window-y="-8"
   inkscape:window-maximized="1"
   inkscape:current-layer="svg2"
   fit-margin-top="0"
   fit-margin-left="0"
   fit-margin-right="0"
   fit-margin-bottom="0" />
 <defs
   id="defs4">
  <style
   type="text/css"
   id="style6">
   
    .fil1 {fill:#FEFEFE}
    .fil0 {fill:#FEFEFE;fill-rule:nonzero}
   
  </style>
 
  
  
 
   
   
   
   
   
   
   
   
   
   
   
   
   
   
   
   
   
   
   
   
   
   
   
   
   
   
   
   
   
   
   
   
   
   
   
   
   
   
   
   
   
   
   
   
   
   
   
  </defs>
 <g
   id="g964"
   transform="translate(4.2857288e-4,-1.692581e-4)"><path
     style="fill:#fefefe;stroke-width:0.97048914"
     inkscape:connector-curvature="0"
     id="path74"
     d="m 2264.2161,2824.909 c 1075.3019,0 1341.216,-1899.24727 1341.216,-1088.8888 0,809.3879 -649.2573,1466.4091 -1341.216,1466.4091 -691.9588,0 -1341.21603,-656.0507 -1341.21603,-1466.4091 0,-809.38798 265.91403,1088.8888 1341.21603,1088.8888 z"
     class="fil1" /><ellipse
     style="fill:#fefefe;stroke-width:0.97048914"
     id="ellipse76"
     ry="484.27408"
     rx="427.01523"
     cy="2296.9629"
     cx="2264.2161"
     class="fil1" /><path
     style="fill:#fefefe;stroke-width:0.97048914"
     inkscape:connector-curvature="0"
     id="path78"
     d="m 2264.2161,2555.113 v 0 h 211.5666 c -2.9115,119.3702 21.3508,272.7074 155.2783,258.1501 v 93.167 h -366.8449 v 0 h -366.8449 v -93.167 c 133.9275,14.5573 158.1897,-139.7504 155.2782,-258.1501 z"
     class="fil1" /><rect
     style="fill:#fefefe;stroke-width:0.73495418"
     y="397.68231"
     x="-206.13934"
     id="rect80"
     height="1278.6422"
     width="973.34619"
     transform="rotate(-27.399992)"
     class="fil1" /><polygon
     transform="matrix(0.97048914,0,0,0.97048914,-318.25554,-336.94464)"
     style="fill:#fefefe"
     id="polygon82"
     points="2804,1954 1935,1949 1899,974 2747,999 "
     class="fil1" /><polygon
     transform="matrix(0.97048914,0,0,0.97048914,-318.25554,-336.94464)"
     style="fill:#fefefe"
     id="polygon84"
     points="3553,1428 3019,1476 3171,622 3725,560 "
     class="fil1" /><polygon
     transform="matrix(0.97048914,0,0,0.97048914,-318.25554,-336.94464)"
     style="fill:#fefefe"
     id="polygon86"
     points="3859,1980 3473,1861 3806,1295 4225,1428 "
     class="fil1" /></g>
</svg>